PathFileType	4	(X/Y/Z)	27_2_6_p0_0-315_filt_butterworth.trc
DataRate	CameraRate	NumFrames	NumMarkers	Units	OrigDataRate	OrigDataStartFrame	OrigNumFrames
59.0	59.0	7	27	m	59.0	39	315
Frame#	Time	RHip			RKnee			RAnkle			RBigToe			RSmallToe			RHeel			LHip			LKnee			LAnkle			LBigToe			LSmallToe			LHeel			Neck			Head			Nose			RShoulder			RElbow			RWrist			RThumb			RIndex			RPinky			LShoulder			LElbow			LWrist			LThumb			LIndex			LPinky			
		X1	Y1	Z1	X2	Y2	Z2	X3	Y3	Z3	X4	Y4	Z4	X5	Y5	Z5	X6	Y6	Z6	X7	Y7	Z7	X8	Y8	Z8	X9	Y9	Z9	X10	Y10	Z10	X11	Y11	Z11	X12	Y12	Z12	X13	Y13	Z13	X14	Y14	Z14	X15	Y15	Z15	X16	Y16	Z16	X17	Y17	Z17	X18	Y18	Z18	X19	Y19	Z19	X20	Y20	Z20	X21	Y21	Z21	X22	Y22	Z22	X23	Y23	Z23	X24	Y24	Z24	X25	Y25	Z25	X26	Y26	Z26	X27	Y27	Z27	
39	0.6610169491525424	0.14206498053136463	0.9700926688077512	0.7363416352444105	0.15420643298705097	0.46989062804611553	0.7656614537380318	0.1845099422636358	-0.00957095714822491	0.8155237379850268	0.13084844767318768	-0.02035223897019009	0.6087472514076736	0.19460633735734023	0.0034997511196856734	0.603169457975954	0.16381840810163364	-0.09657199849576414	0.900768662556011	-0.08157625255424922	0.9685080252528893	0.7791614608185389	-0.05333782826328257	0.4437570748411386	0.7988991545049047	-0.03457369464059158	-0.029386274915352714	0.8110431590606428	-0.02894598022945561	-0.0113210373048191	0.6032069276669082	-0.08470892591617787	-0.03376982320489494	0.6680502987516461	-0.007939634777606137	-0.08306957411819198	0.8581473398592382	0.005740238862782832	1.515634310195386	0.7577636145991371	0.007298199539825452	1.7566740066636746	0.7150329895117091	-0.02338581676218836	1.6411833266215239	0.6290320372214224	0.16478381254522112	1.4355551414437309	0.721216805362877	0.19101344347056498	1.1577004599186251	0.6845996920503736	0.0995698937423202	0.9370119056560623	0.5861050946627837	0.008534533498630705	0.8650829306448841	0.5337802529038567	0.009600721466781603	0.8477508556044941	0.5582837586159671	0.014445041785469608	0.8310712006415446	0.6006918033763697	-0.151596800331648	1.4222669541978963	0.7494092403057102	-0.17431685484963452	1.1438585481341732	0.7446584737894669	-0.08298500245624169	0.9477671323388661	0.5935285245023545	0.01266717703845899	0.9147692918045475	0.52811377669761	0.015671103899990126	0.8666947640736936	0.5398848584985946	0.003004425750396719	0.8424077420448778	0.578855800632596	
40	0.6779661016949152	0.14227587450751106	0.9703308953491189	0.7358851602611172	0.15435721004594993	0.4698334689870871	0.7658235139504194	0.18446775190381898	-0.010018475417636577	0.8155369922160957	0.13122671856018275	-0.020949265254928455	0.6095473275111021	0.19487892651220257	0.004535457039884186	0.6031050308789552	0.16378950735018963	-0.09675795907317261	0.9007621046627984	-0.08145984753296387	0.9688596246674718	0.7791479514410177	-0.05333767459753002	0.44376454533452425	0.7988920186566201	-0.03462565702743778	-0.028873601990387646	0.8109657945742199	-0.029240117832012223	-0.01040002538716666	0.6026382530360692	-0.08459769730517286	-0.03358426882633083	0.6677557267436105	-0.008688465294423726	-0.08358112966781778	0.8598368903961405	0.005718801823268161	1.5164057785999527	0.7578924291083364	0.007287191885409424	1.756472906976943	0.7149803669169291	-0.023380486389227996	1.6412239803760278	0.6290553132020323	0.16477406319365742	1.4355460406507674	0.7212290455138426	0.19100657102816637	1.157618575366336	0.6846532762242363	0.09954066083898755	0.937097662029098	0.5860760015443902	0.008537275738020326	0.8648987401757219	0.5339796116589696	0.008756844631454774	0.8483034934088645	0.5586829420523902	0.014248887193394587	0.8318531591485532	0.6007522569573924	-0.15155423723552192	1.4222249929410342	0.7496867138491957	-0.17428454309100566	1.1434234992972143	0.7446787042021488	-0.08297051061367924	0.947705173679128	0.5934662385066509	0.01361723592241806	0.9140812267860959	0.5285655875570064	0.015857224213559652	0.8668436445540523	0.5394770277778581	0.003064344314276232	0.8416226911215993	0.5811867977103004	
41	0.6949152542372882	0.14253106094614715	0.9706031622910771	0.7352635550180913	0.15439878462001794	0.4696501389886424	0.7660962001728462	0.1844304860295031	-0.01041331172959517	0.8155580979712731	0.13130122577995762	-0.021840444972834182	0.6106711695232135	0.194850238273017	0.005156080302466948	0.6029813527635505	0.16375434639551675	-0.09709378348164499	0.9007664465504999	-0.08137805352549814	0.9689918144540139	0.7791033040825679	-0.05333945146691087	0.44375728126982505	0.7988592837061386	-0.03468092770114112	-0.028552415782983814	0.8108966190919137	-0.029583077257096732	-0.009372496313560463	0.6019415835923926	-0.08446642180676066	-0.03329455078999375	0.6673271807600836	-0.009335023420994924	-0.08419933489397459	0.8614255122186998	0.0057051949356856915	1.5170326013400097	0.7579831990511336	0.007288658218167404	1.7562900672031334	0.7149057049121434	-0.023372145786766857	1.6412881121871843	0.6290710854785373	0.16477850994356058	1.43553249158059	0.7212439427141991	0.1910212651100155	1.1576738055422984	0.6847080522264122	0.09952874642227238	0.937084485280727	0.5860554192194647	0.008527894198449248	0.8647866447650857	0.5341931630981342	0.007921540748186202	0.8488694721097055	0.5591461485768848	0.014020574998010162	0.8328228496358699	0.6008286124645408	-0.1515050224941717	1.4222416841639867	0.7498457604862925	-0.17429070591667464	1.1432808773183876	0.7447262427041118	-0.08296888256315815	0.94765967474693	0.5933738262461629	0.01431900745932386	0.9130163403609306	0.530182074856819	0.015986082449052967	0.8673009749422524	0.5383107648476348	0.0030345472000627956	0.8409679210904205	0.5831684951906333	
42	0.711864406779661	0.14274956069183167	0.9710375618094285	0.7343718815554271	0.15429861397050104	0.46931688726014376	0.7665492640925731	0.18440521880267963	-0.010722568595909004	0.815584953529506	0.13122279311612245	-0.022847096735876496	0.6119833015687878	0.19468123163371165	0.005172257100205815	0.6028349152373308	0.1637109944896154	-0.09750979713328081	0.900786719081218	-0.08135081486141994	0.9690590412325264	0.7789944929194764	-0.05334330354497722	0.44371477861607833	0.7988168131633827	-0.034747094210031026	-0.028426603803661882	0.8108362390791575	-0.029866454221266044	-0.00845105660545968	0.6014391747887009	-0.08439569388830828	-0.03306594450703903	0.6670173657169689	-0.009831975933774502	-0.08485320805490522	0.8628587227786151	0.0057009293244825515	1.5173391628318278	0.7580094080858503	0.007302507420722801	1.7561733486632258	0.7148326240389622	-0.023350584371271382	1.6412375897397824	0.6290926204333938	0.1647951816564175	1.4355145070645603	0.7212581138999067	0.19102460785322314	1.1579566866590019	0.6847385680015672	0.09953309374541636	0.9369710493516094	0.5860567735620986	0.0085180915938372	0.8648299092611226	0.5342811253894106	0.007239172682852965	0.8492910907339236	0.5595295637721015	0.013915601359986391	0.8338365845785768	0.6005159109022188	-0.15142742490910147	1.4223229077194341	0.7499100974321681	-0.17433415267424834	1.1433558803320658	0.7447777603198218	-0.08300490477953669	0.9476900284149201	0.593324689400972	0.014526291610332667	0.9120073128557763	0.5315968694156377	0.015849286815174217	0.8680843477320989	0.5363492559856072	0.00289677791331322	0.8405518732149745	0.5845209748577453	
43	0.7288135593220338	0.14290099117901292	0.9718048897641993	0.7331675015855192	0.15411685489171187	0.4688419518204653	0.7671920576853388	0.18439417221550702	-0.010948739241928546	0.8156093826594994	0.13103938943786805	-0.023508850189842834	0.6128697752892627	0.19450693435328537	0.004653883756771046	0.6027237055229107	0.16365630025176847	-0.09795814237242341	0.9008085192454508	-0.08135766897785066	0.9693011094299284	0.7788565871274927	-0.05334745023612682	0.44362782733060796	0.7988381621711586	-0.03482526347964928	-0.02846658236610783	0.8107870841790683	-0.030052118697963766	-0.007711335035991501	0.6012463425813616	-0.08439412254860779	-0.03289488182884252	0.6668169937577095	-0.01014374453851394	-0.0855314399968185	0.8641833447965491	0.005703560804231034	1.517195071691035	0.757956578178455	0.007323222433656686	1.7561246956776781	0.7147812148711082	-0.02331132512396706	1.6409772132835423	0.6291231724149795	0.164814690321782	1.435493594510762	0.7212649580803436	0.19095108025651933	1.1584765988571901	0.6846661242344549	0.09953796580334082	0.9368600890557228	0.5860650297831107	0.008463030950593415	0.8650404305010313	0.5341264757033564	0.006873744912636379	0.8494410232939711	0.5597054160297446	0.014048546235975273	0.8348185325045275	0.599497432705293	-0.1513662189255421	1.422396386192285	0.7499398971204115	-0.17439149849519242	1.1435112816110637	0.7448037339758601	-0.08306670269528826	0.94771577861918	0.5934161422478099	0.014316638989213221	0.9114587453183094	0.531631293860012	0.01543982360593613	0.869076716797547	0.533810232037358	0.002684725862800373	0.8404159201125028	0.585134238305137	
44	0.7457627118644068	0.14296564032865325	0.9729650690818977	0.7317006910342083	0.15389981003402348	0.46833920087481473	0.7677951980652963	0.18439509921918765	-0.011097420104316788	0.8156237314044092	0.13069173886986682	-0.023310016504214423	0.6125728737460568	0.1943690661509988	0.0038416380148837276	0.6026843441577273	0.16358674696383874	-0.09841922774140395	0.9008185934111648	-0.08134844532469088	0.9696722280035841	0.7787887207322576	-0.05334888664399079	0.4435133787108207	0.7990244908224032	-0.03491589943807901	-0.028649675362189722	0.8107474857822933	-0.0301178117321622	-0.007166472626507679	0.6013488033931167	-0.08443819509617904	-0.0327386129863957	0.6666491577539787	-0.010230135147111687	-0.08624252627818402	0.8654334534553934	0.005709771476984054	1.5165463201483684	0.7578277122668369	0.007345743486654663	1.7561421932760697	0.7147650590571979	-0.023255981159551818	1.6405085729127984	0.6291579779453788	0.16482898180131664	1.4354723535680958	0.7212683597259956	0.19075278969669518	1.1591639007884953	0.6844625626370358	0.09952831344893502	0.9369089207501846	0.5860460103511331	0.00825610672473905	0.8652123306565673	0.533877923916237	0.006878613777605626	0.8492718888592454	0.5596456382032787	0.01443009845500932	0.8357472789474623	0.5977693718113118	-0.15145281896030177	1.4223349274842172	0.7499313061065334	-0.17441302705443068	1.1436046470746368	0.7447522113182932	-0.08307016327416039	0.947566107074657	0.5936349712817225	0.014101287004684857	0.9112105625024696	0.5303169904297333	0.015214215718825905	0.8700321017193601	0.5311083240852386	0.0025132788892784064	0.8404356764116763	0.5851590261227484	
45	0.7627118644067796	0.1428864695565149	0.9743514049221425	0.7300610364210786	0.1536116182899817	0.46798842270922425	0.767920888634739	0.18440193347968184	-0.011163186162247624	0.8156253947631	0.13020619148716878	-0.02201354680695164	0.6107217055144893	0.19424927953627522	0.002935821679542608	0.6026960921920598	0.1635031437351788	-0.09886927777796249	0.9008197834123842	-0.08129218482625955	0.9697530359995898	0.7788211384923637	-0.05334255688724065	0.4434105689628753	0.7993796904687325	-0.03502031799225721	-0.028973409733817568	0.8107170203563305	-0.030076945891094515	-0.006710843305618719	0.6015157983808593	-0.08450632511565025	-0.03259559375462682	0.6664848707671652	-0.01009605031403229	-0.08697881783567032	0.8665952939433105	0.005719587827859365	1.5154876049669777	0.7576500892533895	0.007367133621886514	1.7562659882854121	0.7147907598946173	-0.02317914888611862	1.6398992673349513	0.629194669723675	0.1648486073406894	1.4354521548381018	0.7213096820027313	0.19052058168220717	1.1598783806933424	0.6843391857321937	0.09949841795963643	0.9372262344571488	0.5859732910372217	0.00785194062202325	0.8649394755611155	0.5339979712370669	0.0070990497087555365	0.8488218808432121	0.5593980500338305	0.014996002339891889	0.8366329327004264	0.5955613629403603	-0.151796679519078	1.4220494713310674	0.7498523808084507	-0.17432186776306408	1.143527832033052	0.7445360270445808	-0.08290794402906312	0.9471495241420382	0.5937030306061775	0.014526956195594208	0.9108344655618444	0.5285622082536873	0.015807827244587482	0.8706716240611222	0.5288003210684402	0.0025496888327173747	0.8403431817745206	0.5850520634132118	
